<svg width="16" height="24" viewBox="0 0 16 24" fill="none" xmlns="http://www.w3.org/2000/svg">
<path d="M1.2 0.599998H5.488V11.128L4.656 16.344H2.032L1.2 11.128V0.599998ZM0.752 20.888C0.752 20.1413 0.986667 19.5547 1.456 19.128C1.92533 18.68 2.544 18.456 3.312 18.456C4.12267 18.456 4.76267 18.68 5.232 19.128C5.70133 19.5547 5.936 20.1413 5.936 20.888C5.936 21.6347 5.70133 22.232 5.232 22.68C4.76267 23.128 4.12267 23.352 3.312 23.352C2.544 23.352 1.92533 23.128 1.456 22.68C0.986667 22.232 0.752 21.6347 0.752 20.888ZM10.6063 0.599998H14.8943V11.128L14.0623 16.344H11.4383L10.6063 11.128V0.599998ZM10.1583 20.888C10.1583 20.1413 10.3929 19.5547 10.8623 19.128C11.3316 18.68 11.9503 18.456 12.7183 18.456C13.5289 18.456 14.1689 18.68 14.6383 19.128C15.1076 19.5547 15.3423 20.1413 15.3423 20.888C15.3423 21.6347 15.1076 22.232 14.6383 22.68C14.1689 23.128 13.5289 23.352 12.7183 23.352C11.9503 23.352 11.3316 23.128 10.8623 22.68C10.3929 22.232 10.1583 21.6347 10.1583 20.888Z" fill="#EB5757"/>
</svg>
